# xmcd CD database file
#
# Track frame offsets:
#	150
#	13023
#	26052
#	44252
#	61802
#	76275
#	90324
#	108069
#	121560
#	133722
#	146163
#	158386
#
# Disc length: 2327 seconds
#
# Revision: 0
# Processed by: cddbd v1.5.1PL0 Copyright (c) Steve Scherf et al.
# Submitted via: CDex 1.51
#
DISCID=8609150c
DTITLE=Hu Jei - Livsnyterne
DYEAR=1900
DGENRE=Country
TTITLE0=Gale Maren
TTITLE1=Det vil helst gå galt
TTITLE2=I mammas trygge favn
TTITLE3=Fei for egen dør
TTITLE4=Djupe tanker
TTITLE5=En glad trudelutt
TTITLE6=Steelgitarens klang
TTITLE7=Vil du ha mæ for det
TTITLE8=Livsnyterne
TTITLE9=Møt mæ under bjørka
TTITLE10=30-års panikk
TTITLE11=Siste kvelden du var min
EXTD=
EXTT0=
EXTT1=
EXTT2=
EXTT3=
EXTT4=
EXTT5=
EXTT6=
EXTT7=
EXTT8=
EXTT9=
EXTT10=
EXTT11=
PLAYORDER=
